# AST/ASF file generated using VICON BodyLanguage
# -----------------------------------------------
:version 1.10
:name VICON
:units
  mass 1.0
  length 0.45
  angle deg
:documentation
   .ast/.asf automatically generated from VICON data using
   VICON BodyBuilder and BodyLanguage model FoxedUp or BRILLIANT.MOD
:root
   order TX TY TZ RX RY RZ
   axis XYZ
   position 0 0 0  
   orientation 0 0 0 
:bonedata
  begin
     id 1 
     name lhipjoint
     direction 0.567149 -0.783011 0.255413 
     length 2.28399 
     axis 0 0 0  XYZ
  end
  begin
     id 2 
     name lfemur
     direction 0.34202 -0.939693 0  
     length 7.34031  
     axis 0 0 20  XYZ
    dof rx ry rz
    limits (-160.0 20.0)
           (-70.0 70.0)
           (-60.0 70.0)
  end
  begin
     id 3 
     name ltibia
     direction 0.34202 -0.939693 0   
     length 6.9833   
     axis 0 0 20   XYZ
    dof rx
    limits (-10.0 170.0)
  end
  begin
     id 4 
     name lfoot
     direction 0.136498 -0.375025 0.91691   
     length 2.33665   
     axis -90 7.62852e-016 20   XYZ
    dof rx rz
    limits (-45.0 90.0)
           (-70.0 20.0)
  end
  begin
     id 5 
     name ltoes
     direction 1.5367e-011 -4.21617e-011 1   
     length 1.15039   
     axis -90 7.62852e-016 20   XYZ
    dof rx
    limits (-90.0 20.0)
  end
  begin
     id 6 
     name rhipjoint
     direction -0.602854 -0.758518 0.247423   
     length 2.35775  
     axis 0 0 0  XYZ 
  end
  begin
     id 7 
     name rfemur
     direction -0.34202 -0.939693 0   
     length 7.43932   
     axis 0 0 -20   XYZ
    dof rx ry rz
    limits (-160.0 20.0)
           (-70.0 70.0)
           (-70.0 60.0)
  end
  begin
     id 8 
     name rtibia
     direction -0.34202 -0.939693 0   
     length 7.11893   
     axis 0 0 -20   XYZ
    dof rx
    limits (-10.0 170.0)
 end
 begin
     id 9 
     name rfoot
     direction -0.131771 -0.362037 0.922803   
     length 2.53019  
     axis -90 -7.62852e-016 -20   XYZ
    dof rx rz
    limits (-45.0 90.0)
           (-20.0 70.0)
  end
  begin
     id 10 
     name rtoes
     direction -1.53733e-011 -4.21932e-011 1   
     length 1.24596   
     axis -90 -7.62852e-016 -20   XYZ
    dof rx
    limits (-90.0 20.0)
  end
  begin
     id 11 
     name lowerback
     direction 0.0235427 0.999023 -0.0374125   
     length 2.21768   
     axis 0 0 0   XYZ
    dof rx ry rz
    limits (-20.0 45.0)
           (-30.0 30.0)
           (-30.0 30.0)
  end
  begin
     id 12 
     name upperback
     direction 0.0302156 0.996818 -0.073759   
     length 2.20352   
     axis 0 0 0   XYZ
    dof rx ry rz
    limits (-20.0 45.0)
           (-30.0 30.0)
           (-30.0 30.0)
  end
  begin
     id 13 
     name thorax
     direction 0.0187169 0.998235 -0.0563532   
     length 2.22103   
     axis 0 0 0   XYZ
    dof rx ry rz
    limits (-20.0 45.0)
           (-30.0 30.0)
           (-30.0 30.0)
  end
  begin
     id 14 
     name lowerneck
     direction -0.119528 0.987423 0.103481   
     length 1.72948   
     axis 0 0 0   XYZ
    dof rx ry rz
    limits (-20.0 45.0)
           (-30.0 30.0)
           (-30.0 30.0)
  end
  begin
     id 15 
     name upperneck
     direction 0.248049 0.963095 -0.104496   
     length 1.74979   
     axis 0 0 0   XYZ
    dof rx ry rz
    limits (-20.0 45.0)
           (-30.0 30.0)
           (-30.0 30.0)
  end
  begin
     id 16
     name head
     direction 0.0903589 0.994284 -0.056876  
     length 1.78268  
     axis 0 0 0   XYZ
    dof rx ry rz
    limits (-20.0 45.0)
           (-30.0 30.0)
           (-30.0 30.0)
  end
  begin
     id 17 
     name lclavicle
     direction 0.946008 0.242039 -0.215608  
     length 3.80783  
     axis 0 0 0   XYZ
    dof ry rz
    limits (-20.0 10.0)
           (0.0 20.0)
  end
  begin
     id 18 
     name lhumerus
     direction 1 -4.48991e-011 -2.25695e-027   
     length 4.83125   
     axis 180 -30 -90   XYZ
    dof rx ry rz
    limits (-60.0 90.0)
           (-90.0 90.0)
           (-90.0 90.0)
  end
  begin
     id 19
     name lradius
     direction 0.999991 0.00366712 -0.00211721   
     length 3.00391   
     axis 180 -30 -90   XYZ
    dof rx
    limits (-10.0 170.0)
  end
  begin
     id 20
     name lwrist
     direction 0.999991 0.00393016 -0.00141978   
     length 1.50195   
     axis -1.00488e-014 90 90   XYZ
    dof ry
    limits (-180.0 0.0)
 end
  begin
     id 21 
     name lhand
     direction 1 -4.49123e-011 2.72098e-026   
     length 1.2717   
     axis -1.73687e-014 90 90   XYZ
    dof rx rz
    limits (-90.0 90.0)
           (-45.0 45.0)
  end
  begin
     id 22 
     name lfingers
     direction 1 -4.48678e-011 5.4479e-026   
     length 1.02528   
     axis -3.47372e-014 90 90   XYZ
    dof rx
    limits (0.0 90.0)
  end
  begin
     id 23
     name lthumb
     direction 0.707107 -6.34851e-011 0.707107   
     length 1.4721   
     axis -90 45 -1.62303e-014   XYZ
    dof rx rz
    limits (-45.0 45.0)
           (-45.0 45.0)
  end
  begin
     id 24 
     name rclavicle
     direction -0.981723 0.189447 -0.0181673   
     length 3.74989  
     axis 0 0 0   XYZ 
    dof ry rz
    limits (-10.0 20.0)
           (-20.0 0.0)
  end
  begin
     id 25 
     name rhumerus
     direction -1 -4.48985e-011 2.38206e-027  
     length 4.61118   
     axis 180 30 90   XYZ
    dof rx ry rz
    limits (-90.0 60.0)
           (-90.0 90.0)
           (-90.0 90.0)
  end
  begin
     id 26 
     name rradius
     direction -1 -4.48977e-011 7.41019e-027   
     length 2.91491   
     axis 180 30 90   XYZ
    dof rx
    limits (-10.0 170.0)
  end
  begin
     id 27 
     name rwrist
     direction -1 -4.48549e-011 1.3624e-026   
     length 1.45745   
     axis -1.00488e-014 -90 -90   XYZ
    dof ry
    limits (-180.0 0.0)
  end
  begin
     id 28
     name rhand
     direction -1 -4.49107e-011 2.72109e-026   
     length 1.30769   
     axis -1.73687e-014 -90 -90   XYZ
    dof rx rz
    limits (-90.0 90.0)
           (-45.0 45.0)
  end
  begin
     id 29
     name rfingers
     direction -1 -4.48919e-011 5.44468e-026   
     length 1.05429   
     axis -3.47372e-014 -90 -90   XYZ
    dof rx
    limits (0.0 90.0)
  end
  begin
     id 30
     name rthumb
     direction -0.707107 -6.35315e-011 0.707107   
     length 1.51376   
     axis -90 -45 1.62303e-014   XYZ
    dof rx rz
    limits (-45.0 45.0)
           (-45.0 45.0)
  end
:hierarchy
  begin
    root lhipjoint rhipjoint lowerback
    lhipjoint lfemur
    lfemur ltibia
    ltibia lfoot
    lfoot ltoes
    rhipjoint rfemur
    rfemur rtibia
    rtibia rfoot
    rfoot rtoes
    lowerback upperback
    upperback thorax
    thorax lowerneck lclavicle rclavicle
    lowerneck upperneck
    upperneck head
    lclavicle lhumerus
    lhumerus lradius
    lradius lwrist
    lwrist lhand lthumb
    lhand lfingers
    rclavicle rhumerus
    rhumerus rradius
    rradius rwrist
    rwrist rhand rthumb
    rhand rfingers
  end

#!OML:ASF X:\für Bonn\!DataBase\2005_08_11_Bastian_Final\c3d\Bastian.ASF
:FULLY-SPECIFIED
:DEGREES
1
root -0.20661 17.2386 6.3134 170.869 -8.95823 -178.038
lowerback 3.4484 -3.1828 -2.8742
upperback 5.0008 -4.58592 -0.0926754
thorax 3.44021 -2.51909 1.50888
lowerneck -7.50501 -5.6426 -2.80492
upperneck -0.558802 -7.23629 8.19212
head 1.57455 -3.34337 2.84777
rclavicle -4.66895e-014 1.39149e-014
rhumerus 72.0041 29.7114 8.27427
rradius 38.5469
rwrist -58.7177
rhand -46.1284 -7.95872
rfingers 7.12502
rthumb -18.8692 -37.0635
lclavicle -4.66895e-014 1.39149e-014
lhumerus 83.5661 -28.3362 -51.9205
lradius 31.7844
lwrist 41.3342
lhand -41.4059 20.14
lfingers 7.12502
lthumb -14.3228 49.626
rfemur -2.59091 7.97953 28.8458
rtibia 39.2323
rfoot -24.5069 -25.0407
rtoes 8.02618
lfemur -1.72505 2.94667 -17.1452
ltibia 32.0335
lfoot -13.0675 -11.977
ltoes -7.84594
2
root -0.203083 17.2394 6.30947 170.902 -8.94358 -178.061
lowerback 3.41609 -3.18844 -2.8618
upperback 4.98603 -4.58975 -0.114698
thorax 3.44026 -2.51897 1.47795
lowerneck -7.57207 -5.66688 -2.846
upperneck -0.51662 -7.26777 8.2536
head 1.60731 -3.35462 2.87274
rclavicle 2.28727e-014 1.43125e-014
rhumerus 72.1438 29.1247 8.0906
rradius 38.5642
rwrist -58.8029
rhand -46.0862 -8.19604
rfingers 7.12502
rthumb -18.8286 -37.3048
lclavicle 2.28727e-014 1.43125e-014
lhumerus 83.2346 -27.7236 -51.4268
lradius 31.8501
lwrist 41.5508
lhand -41.5054 19.775
lfingers 7.12502
lthumb -14.4187 49.2542
rfemur -2.6146 7.93267 28.8183
rtibia 39.2298
rfoot -24.5067 -24.9901
rtoes 7.92517
lfemur -1.74507 2.97639 -17.1531
ltibia 32.0417
lfoot -13.0911 -11.9734
ltoes -7.92893
3
root -0.199261 17.2388 6.30548 170.933 -8.92515 -178.086
lowerback 3.37781 -3.19995 -2.88746
upperback 4.98107 -4.6031 -0.114788
thorax 3.45938 -2.52614 1.48954
lowerneck -7.63814 -5.68338 -2.87133
upperneck -0.501258 -7.28776 8.27209
head 1.62749 -3.3619 2.88104
rclavicle -1.37658e-014 1.78906e-014
rhumerus 72.298 28.5492 7.82996
rradius 38.5564
rwrist -58.8179
rhand -45.9917 -8.38915
rfingers 7.12502
rthumb -18.7377 -37.5067
lclavicle -1.37658e-014 1.78906e-014
lhumerus 82.8013 -27.1832 -50.6382
lradius 31.8601
lwrist 41.5017
lhand -41.5145 19.3676
lfingers 7.12502
lthumb -14.4274 48.8462
rfemur -2.63205 7.94358 28.8126
rtibia 39.2274
rfoot -24.4928 -25.0175
rtoes 7.82011
lfemur -1.76229 3.0027 -17.1627
ltibia 32.0501
lfoot -13.1165 -11.9847
ltoes -8.04085
4
root -0.195168 17.2395 6.30147 170.964 -8.91524 -178.088
lowerback 3.34594 -3.20687 -2.87644
upperback 4.96576 -4.60883 -0.126219
thorax 3.45971 -2.5272 1.47026
lowerneck -7.69684 -5.70817 -2.9178
upperneck -0.465462 -7.31889 8.35843
head 1.65837 -3.3723 2.9157
rclavicle 2.81405e-014 1.19271e-015
rhumerus 72.4007 28.0252 7.48335
rradius 38.544
rwrist -58.783
rhand -45.8273 -8.54132
rfingers 7.12502
rthumb -18.5796 -37.674
lclavicle 2.81405e-014 1.19271e-015
lhumerus 82.3846 -26.6829 -49.6515
lradius 31.8019
lwrist 41.1172
lhand -41.4469 19.0962
lfingers 7.12502
lthumb -14.3622 48.5793
rfemur -2.65684 7.89075 28.8107
rtibia 39.2245
rfoot -24.4946 -24.971
rtoes 7.72122
lfemur -1.78289 2.98478 -17.1551
ltibia 32.0584
lfoot -13.1582 -11.9436
ltoes -8.25742
5
root -0.191265 17.2395 6.2973 171 -8.89252 -178.114
lowerback 3.29073 -3.21362 -2.91163
upperback 4.9683 -4.61592 -0.119198
thorax 3.49726 -2.53217 1.49287
lowerneck -7.73891 -5.72667 -3.00141
upperneck -0.480138 -7.33494 8.44289
head 1.67056 -3.37663 2.95803
rclavicle 2.50966e-015 7.95139e-016
rhumerus 72.5065 27.4913 7.08441
rradius 38.5177
rwrist -58.7349
rhand -45.6105 -8.63075
rfingers 7.12502
rthumb -18.371 -37.7833
lclavicle 2.50966e-015 7.95139e-016
lhumerus 81.9081 -26.2342 -48.4871
lradius 31.702
lwrist 40.4665
lhand -41.3327 18.875
lfingers 7.12502
lthumb -14.2522 48.3659
rfemur -2.67077 7.90566 28.8009
rtibia 39.2211
rfoot -24.5167 -24.9829
rtoes 7.6238
lfemur -1.80061 2.95815 -17.174
ltibia 32.0654
lfoot -13.1895 -11.8959
ltoes -8.3303
6
root -0.18695 17.2391 6.29305 171.017 -8.87311 -178.098
lowerback 3.2543 -3.21955 -2.89591
upperback 4.96855 -4.6218 -0.11891
thorax 3.51699 -2.53441 1.48194
lowerneck -7.76539 -5.74329 -3.02618
upperneck -0.489073 -7.35324 8.50496
head 1.67801 -3.38267 2.98222
rclavicle 2.8128e-014 -3.57812e-015
rhumerus 72.5486 27.0136 6.56145
rradius 38.4922
rwrist -58.6118
rhand -45.3886 -8.67224
rfingers 7.12502
rthumb -18.1575 -37.8447
lclavicle 2.8128e-014 -3.57812e-015
lhumerus 81.4651 -25.8103 -47.2432
lradius 31.5624
lwrist 39.5719
lhand -41.1242 18.7229
lfingers 7.12502
lthumb -14.0513 48.2279
rfemur -2.68317 7.82763 28.8138
rtibia 39.2145
rfoot -24.5063 -24.9138
rtoes 7.50136
lfemur -1.80538 2.9237 -17.1494
ltibia 32.0764
lfoot -13.2389 -11.8375
ltoes -8.53239
7
root -0.182349 17.2396 6.28937 171.039 -8.85724 -178.121
lowerback 3.21665 -3.22037 -2.91566
upperback 4.97411 -4.62135 -0.133967
thorax 3.54427 -2.53483 1.47455
lowerneck -7.76233 -5.7624 -3.04751
upperneck -0.535284 -7.37202 8.58246
head 1.66864 -3.38945 3.01192
rclavicle 5.61442e-014 3.97569e-015
rhumerus 72.5903 26.5698 6.0712
rradius 38.4881
rwrist -58.543
rhand -45.1922 -8.65422
rfingers 7.12502
rthumb -17.9686 -37.8442
lclavicle 5.61442e-014 3.97569e-015
lhumerus 81.0118 -25.4043 -45.8764
lradius 31.3839
lwrist 38.4277
lhand -40.903 18.6431
lfingers 7.12502
lthumb -13.8382 48.1627
rfemur -2.69551 7.72827 28.7795
rtibia 39.2133
rfoot -24.5045 -24.8133
rtoes 7.39695
lfemur -1.80672 2.85274 -17.1763
ltibia 32.0787
lfoot -13.2692 -11.7519
ltoes -8.69485
8
root -0.177943 17.2398 6.28641 171.072 -8.83933 -178.125
lowerback 3.15756 -3.22164 -2.9297
upperback 4.99125 -4.62179 -0.130823
thorax 3.59681 -2.53657 1.48061
lowerneck -7.80319 -5.78263 -3.10492
upperneck -0.564908 -7.39038 8.66014
head 1.67433 -3.3949 3.04728
rclavicle 2.37423e-014 -9.14409e-015
rhumerus 72.5987 26.1238 5.56514
rradius 38.5007
rwrist -58.4963
rhand -45.0043 -8.50549
rfingers 7.12502
rthumb -17.7878 -37.7119
lclavicle 2.37423e-014 -9.14409e-015
lhumerus 80.5371 -25.003 -44.4074
lradius 31.1984
lwrist 37.1586
lhand -40.6149 18.5527
lfingers 7.12502
lthumb -13.5605 48.0911
rfemur -2.73116 7.57931 28.7506
rtibia 39.2098
rfoot -24.4362 -24.7023
rtoes 7.25022
lfemur -1.83211 2.84538 -17.1693
ltibia 32.083
lfoot -13.3025 -11.7119
ltoes -8.90873
